<svg width="1341" height="1036" viewBox="0 0 1341 1036" fill="none" xmlns="http://www.w3.org/2000/svg">
<path d="M388.29 918.092C165.314 814.147 29.19 953.054 -11 1035.5L-7.86831 379.579C73.5556 277.825 189.428 271.563 244.233 280.956C299.037 290.349 358.539 248.081 361.671 223.034C361.671 59.0002 684.757 112.5 698.327 112.5C891.451 119 1292.73 105.6 1352.85 0V514.207C1336.57 603.124 1251.07 694.233 1210.36 728.673C1148.77 774.593 999.909 852.343 897.189 795.987C794.47 739.631 721.815 793.378 698.327 827.296C600.619 990.102 450.924 955.663 388.29 918.092Z" fill="#E5F6EC"/>
</svg>
