<svg width="1340" height="1036" viewBox="0 0 1340 1036" fill="none" xmlns="http://www.w3.org/2000/svg">
<path d="M945.56 918.092C1168.54 814.147 1304.66 953.054 1344.85 1035.5L1341.72 379.579C1260.29 277.825 1144.42 271.563 1089.62 280.956C1034.81 290.349 975.311 248.081 972.179 223.034C972.179 59.0002 649.093 112.5 635.523 112.5C442.399 119 41.1201 105.6 -18.9999 0V514.207C-2.71509 603.124 82.78 694.233 123.492 728.673C185.082 774.593 333.941 852.343 436.661 795.987C539.38 739.631 612.035 793.378 635.523 827.296C733.232 990.102 882.926 955.663 945.56 918.092Z" fill="#EFFEEF"/>
</svg>
