<svg width="1341" height="1036" viewBox="0 0 1341 1036" fill="none" xmlns="http://www.w3.org/2000/svg">
<path d="M953.559 918.092C1176.54 814.147 1312.66 953.054 1352.85 1035.5L1349.72 379.579C1268.29 277.825 1152.42 271.563 1097.62 280.956C1042.81 290.349 983.31 248.081 980.179 223.034C980.179 59.0002 657.093 112.5 643.522 112.5C450.398 119 49.1196 105.6 -11.0004 0V514.207C5.28442 603.124 90.7795 694.233 131.491 728.673C193.081 774.593 341.941 852.343 444.66 795.987C547.38 739.631 620.035 793.378 643.522 827.296C741.231 990.102 890.926 955.663 953.559 918.092Z" fill="#FEEDE5"/>
</svg>
