<svg width="1341" height="894" viewBox="0 0 1341 894" fill="none" xmlns="http://www.w3.org/2000/svg">
<path d="M387.334 792.635C164.333 702.894 28.1944 822.82 -12 894L-8.86797 327.71C72.5649 239.86 188.45 234.454 243.261 242.563C298.071 250.673 357.58 214.181 360.712 192.557C360.712 50.9378 683.833 97.1273 697.405 97.1273C890.551 102.739 1291.87 91.1698 1352 0V443.941C1335.71 520.708 1250.21 599.367 1209.49 629.1C1147.9 668.745 999.02 735.871 896.289 687.216C793.559 638.561 720.896 684.964 697.405 714.247C599.686 854.805 449.975 825.072 387.334 792.635Z" fill="#4F39F6" fill-opacity="0.06"/>
</svg>
