<svg width="1340" height="1036" viewBox="0 0 1340 1036" fill="none" xmlns="http://www.w3.org/2000/svg">
<path d="M387.29 918.092C164.314 814.147 28.19 953.054 -12 1035.5L-8.86831 379.579C72.5556 277.825 188.428 271.563 243.233 280.956C298.037 290.349 357.539 248.081 360.671 223.034C360.671 59.0002 683.757 112.5 697.327 112.5C890.451 119 1291.73 105.6 1351.85 0V514.207C1335.57 603.124 1250.07 694.233 1209.36 728.673C1147.77 774.593 998.909 852.343 896.189 795.987C793.47 739.631 720.815 793.378 697.327 827.296C599.619 990.102 449.924 955.663 387.29 918.092Z" fill="#EFFAFE"/>
</svg>
