<svg width="375" height="363" viewBox="0 0 375 363" fill="none" xmlns="http://www.w3.org/2000/svg">
<path d="M109.455 330.925C48.3317 302.527 11.017 340.476 0 363L0.857977 65.8611C23.1781 38.0626 54.9414 36.3519 69.9646 38.9179C84.9877 41.4839 101.299 29.9369 102.157 23.0942C105.934 4.61883 114.319 0 118.039 0H373.862C375.923 73.5592 374.721 217.022 373.862 220.586C369.398 244.878 345.962 269.768 334.802 279.177C317.919 291.722 277.113 312.963 248.955 297.566C220.798 282.17 200.881 296.854 194.443 306.12C167.659 350.598 126.624 341.189 109.455 330.925Z" fill="#EFFAFE"/>
</svg>
